<svg xmlns="http://www.w3.org/2000/svg" viewBox="0 0 96 96" role="img" aria-labelledby="title desc">
  <title id="title">Hoan Tien Mua Hang logo</title>
  <desc id="desc">Red shopping bag with cashback arrow mark</desc>
  <defs>
    <linearGradient id="bag" x1="18" x2="82" y1="17" y2="86" gradientUnits="userSpaceOnUse">
      <stop stop-color="#ff2b24"/>
      <stop offset=".62" stop-color="#e11d2e"/>
      <stop offset="1" stop-color="#b80f1d"/>
    </linearGradient>
    <linearGradient id="coin" x1="37" x2="62" y1="44" y2="69" gradientUnits="userSpaceOnUse">
      <stop stop-color="#ff7048"/>
      <stop offset="1" stop-color="#d31320"/>
    </linearGradient>
  </defs>
  <circle cx="48" cy="48" r="48" fill="#fff"/>
  <path d="M25 31h46c5.1 0 9.2 3.8 9.8 8.9l4.4 36.5A11.8 11.8 0 0 1 73.5 90h-51A11.8 11.8 0 0 1 10.8 76.4l4.4-36.5A9.9 9.9 0 0 1 25 31Z" fill="url(#bag)"/>
  <path d="M33 35V25.5C33 14.2 39.8 7 48 7s15 7.2 15 18.5V35" fill="none" stroke="#e11d2e" stroke-width="8" stroke-linecap="round"/>
  <path d="M30.2 57.1a22 22 0 0 1 34.2-13.5" fill="none" stroke="#fff" stroke-width="8" stroke-linecap="round"/>
  <path d="M67 53.5l8 11.5H63.4l-7.2 9" fill="none" stroke="#fff" stroke-width="8" stroke-linecap="round" stroke-linejoin="round"/>
  <circle cx="48" cy="61" r="15.5" fill="url(#coin)" stroke="#ff8b64" stroke-width="3"/>
  <path d="M47 54.5h7.5M51 50.5v21M45.6 58.4c-4.1 0-7 2.9-7 6.8 0 4 2.9 6.8 7 6.8 3.9 0 6.6-2.8 6.6-6.8s-2.7-6.8-6.6-6.8Z" fill="none" stroke="#fff" stroke-width="5" stroke-linecap="round" stroke-linejoin="round"/>
</svg>
